<?xml version="1.0" encoding="UTF-8"?> <!-- Generator: Adobe Illustrator 24.2.3, SVG Export Plug-In . SVG Version: 6.00 Build 0) --> <svg xmlns="http://www.w3.org/2000/svg" xmlns:xlink="http://www.w3.org/1999/xlink" version="1.1" id="Layer_1" x="0px" y="0px" viewBox="0 0 250 41" style="enable-background:new 0 0 250 41;" xml:space="preserve"> <style type="text/css"> .st0{fill:#071A33;} .st1{fill:#F7AC32;} </style> <g> <path class="st0" d="M0,11h1.7l2.8,8.6l2.5,7.7l2.9-7.7l3.2-8.6h1.6l6,16.4l2.5-7.8L26,11h1.7L21.5,30H20l-6.1-16.5l-3.4,9.1 L7.8,30H6.2L0,11z M27,21c0-5.2,4-9.1,9.4-9.1c5.4,0,9.4,3.9,9.4,9.1c0,5.2-4,9.1-9.4,9.1C31,30.1,27,26.3,27,21z M44,21 c0-4.3-3.2-7.4-7.5-7.4c-4.3,0-7.6,3.1-7.6,7.4c0,4.3,3.2,7.4,7.6,7.4C40.8,28.5,44,25.3,44,21z M47.5,21c0-5.2,4-9.1,9.4-9.1 c5.4,0,9.4,3.9,9.4,9.1c0,5.2-4,9.1-9.4,9.1C51.5,30.1,47.5,26.3,47.5,21z M64.5,21c0-4.3-3.2-7.4-7.5-7.4c-4.3,0-7.6,3.1-7.6,7.4 c0,4.3,3.2,7.4,7.6,7.4C61.3,28.5,64.5,25.3,64.5,21z M68.1,12.1h7.3c5.8,0,9.6,3.7,9.6,8.9c0,5.3-3.9,8.9-9.6,8.9h-7.3V12.1z M75.3,28.3c4.8,0,7.9-3,7.9-7.3s-3.1-7.3-7.9-7.3H70v14.6H75.3z M85.5,27.8l0.7-1.5c1.3,1.3,3.6,2.2,5.9,2.2 c3.4,0,4.8-1.4,4.8-3.2c0-4.9-11.1-1.9-11.1-8.5c0-2.6,2.1-4.9,6.6-4.9c2,0,4.1,0.6,5.6,1.6L97.5,15c-1.5-1-3.3-1.5-4.9-1.5 c-3.3,0-4.7,1.5-4.7,3.2c0,4.9,11.1,1.9,11.1,8.5c0,2.6-2.1,4.9-6.7,4.9C89.5,30.1,86.9,29.2,85.5,27.8z M116.4,10.9h1.7v17.4h9.7 v1.6h-11.3V10.9z M127.3,20.9c0-5.2,4-9.1,9.4-9.1c5.4,0,9.4,3.9,9.4,9.1s-4,9.1-9.4,9.1C131.3,30,127.3,26.1,127.3,20.9z M144.2,20.9c0-4.3-3.2-7.4-7.5-7.4c-4.3,0-7.6,3.1-7.6,7.4s3.2,7.4,7.6,7.4C141,28.3,144.2,25.1,144.2,20.9z M163.9,11.9v17.9 h-1.6l-11.6-14.5v14.5h-1.9V11.9h1.6L162,26.4V11.9H163.9z M179.9,28.2v1.6h-12.7V11.9h12.3v1.6h-10.4v6.4h9.3v1.6h-9.3v6.6H179.9z M194.1,29.8l-4.1-5.8c-0.5,0.1-0.9,0.1-1.4,0.1h-4.8v5.7h-1.9V11.9h6.7c4.6,0,7.3,2.3,7.3,6.1c0,2.8-1.5,4.8-4.1,5.6l4.4,6.1 H194.1z M194,18c0-2.9-1.9-4.5-5.5-4.5h-4.8v9h4.8C192.1,22.5,194,20.9,194,18z M201.9,29c-1.4-0.8-2.5-1.9-3.2-3.3 c-0.8-1.4-1.2-3-1.2-4.8c0-1.8,0.4-3.4,1.2-4.8c0.8-1.4,1.8-2.5,3.2-3.3c1.4-0.8,2.9-1.2,4.7-1.2c2.1,0,3.9,0.5,5.4,1.6 c1.5,1.1,2.6,2.5,3.2,4.2h-1.7c-0.6-1.3-1.4-2.4-2.6-3.2c-1.2-0.8-2.6-1.1-4.2-1.1c-1.5,0-2.8,0.3-3.9,1c-1.1,0.6-2,1.6-2.7,2.7 c-0.6,1.2-0.9,2.5-0.9,4c0,1.5,0.3,2.8,0.9,4c0.6,1.2,1.5,2.1,2.7,2.7c1.1,0.6,2.4,1,3.9,1c1.4,0,2.6-0.3,3.7-0.9 c1.1-0.6,1.9-1.4,2.6-2.4c0.6-1,1-2.2,1.1-3.5h-8v-1.5h9.6c0,1.9-0.4,3.5-1.1,5c-0.8,1.5-1.8,2.6-3.2,3.5c-1.4,0.8-3,1.3-4.8,1.3 C204.9,30.1,203.3,29.7,201.9,29z M229.4,25h-10l-2.2,4.8h-2l8.2-17.9h1.9l8.2,17.9h-2L229.4,25z M228.7,23.5l-4.3-9.6l-4.3,9.6 H228.7z M250,11.9v17.9h-1.6l-11.6-14.5v14.5H235V11.9h1.6l11.6,14.5V11.9H250z"></path> <rect x="87.1" y="19.7" transform="matrix(1.466721e-10 -1 1 1.466721e-10 87.1082 128.1083)" class="st1" width="41" height="1.6"></rect> </g> </svg> 